<svg xmlns="http://www.w3.org/2000/svg" version="1.1" xmlnsXlink="http://www.w3.org/1999/xlink" xmlnsSvgjs="http://svgjs.dev/svgjs" width="2000" height="2000" viewBox="0 0 2000 2000"><g transform="matrix(1,0,0,1,-0.9999999999998863,-0.9999999999998863)"><svg viewBox="0 0 280 280" data-background-color="#ececea" preserveAspectRatio="xMidYMid meet" height="2000" width="2000" xmlns="http://www.w3.org/2000/svg" xmlnsXlink="http://www.w3.org/1999/xlink"><g id="tight-bounds" transform="matrix(1,0,0,1,0.13999999999998636,0.13999999999998636)"><svg viewBox="0 0 279.72 279.72" height="279.72" width="279.72"><g><svg viewBox="0 0 279.72 279.72" height="279.72" width="279.72"><g><svg viewBox="0 0 279.72 279.72" height="279.72" width="279.72"><g id="textblocktransform"><svg viewBox="0 0 279.72 279.72" height="279.72" width="279.72" id="textblock"><g><svg viewBox="0 0 279.72 279.72" height="279.72" width="279.72"><g transform="matrix(1,0,0,1,73.92936372216631,86.32960278395765)"><svg viewBox="0 0 131.8612725556674 107.06079443208472" height="107.06079443208472" width="131.8612725556674"><g id="icon-0"><svg xmlns="http://www.w3.org/2000/svg" xmlnsXlink="http://www.w3.org/1999/xlink" version="1.1" x="0" y="0" viewBox="3.188 11.92 94.06099999999999 76.37" enable-background="new 0 0 100 100" xml:space="preserve" height="107.06079443208472" width="131.8612725556674" class="icon-jxe-0" data-fill-palette-color="accent" id="jxe-0"><g fill="#ffbf5d" data-fill-palette-color="accent"><path fill="#ffbf5d" d="M67.022 66.238C71.029 65.263 76.719 64.066 82.676 63.428 82.946 62.069 83.092 60.681 83.092 59.267 83.092 58.738 83.07 58.211 83.031 57.689V50.132C80.241 56.723 74.527 62.363 67.022 66.238" data-fill-palette-color="accent"></path><path fill="#ffbf5d" d="M43.141 69.965C65.206 69.965 83.093 56.971 83.093 40.942S65.206 11.92 43.141 11.92 3.189 24.914 3.189 40.942C3.188 56.971 21.076 69.965 43.141 69.965M9.82 40.94C9.82 36.274 15.027 32.492 21.45 32.492S33.08 36.275 33.08 40.94 27.873 49.389 21.45 49.389 9.82 45.606 9.82 40.94M76.462 40.94C76.462 45.606 71.253 49.389 64.83 49.389S53.2 45.606 53.2 40.94 58.407 32.492 64.83 32.492 76.462 36.275 76.462 40.94M31.509 56.698C31.509 52.033 36.717 48.249 43.138 48.249 49.562 48.249 54.769 52.033 54.769 56.698 54.769 61.365 49.561 65.146 43.138 65.146 36.716 65.146 31.509 61.365 31.509 56.698M40.176 40.941C40.176 39.752 41.504 38.788 43.141 38.788S46.106 39.752 46.106 40.941 44.778 43.095 43.141 43.095 40.176 42.131 40.176 40.941M54.77 25.186C54.77 29.852 49.562 33.635 43.139 33.635 36.717 33.635 31.51 29.852 31.51 25.186S36.718 16.737 43.139 16.737C49.562 16.736 54.77 20.519 54.77 25.186" data-fill-palette-color="accent"></path><path fill="#ffbf5d" d="M85.484 64.411C74.746 65.388 61.239 68.839 55.313 70.458A55.4 55.4 0 0 1 43.14 71.797C24.415 71.797 8.527 62.654 3.233 50.096V57.972C3.207 58.402 3.188 58.833 3.188 59.267 3.188 75.297 21.075 88.29 43.14 88.29 50.395 88.29 57.193 86.878 63.056 84.423 85.064 78.667 97.249 81.326 97.249 81.326V64.955C94.481 64.033 90.256 63.978 85.484 64.411" data-fill-palette-color="accent"></path></g></svg></g></svg></g><g id="text-0"><path d="M15.742 103.446l12.355 4.116-1.078 3.236-27.019-9 5.245-15.745 2.704 0.9-4.166 12.51 9.264 3.086 3.446-10.346 2.695 0.898z" fill="#009b7d" data-fill-palette-color="primary"></path><path d="M20.123 74.954l17.913 9.642-1.617 3.003-17.913-9.642zM14.711 71.624v0.001l0.287 0.154c0.454 0.245 0.729 0.415 0.822 0.512 0.1 0.1 0.183 0.291 0.247 0.573v0c0.088 0.294-0.053 0.785-0.422 1.472v0l-0.097 0.179c-0.283 0.526-0.469 0.842-0.557 0.949-0.088 0.107-0.249 0.205-0.482 0.295v0c-0.257 0.077-0.456 0.102-0.595 0.074-0.133-0.025-0.426-0.16-0.88-0.405v0l-0.287-0.155c-0.454-0.245-0.732-0.417-0.832-0.517-0.1-0.1-0.183-0.291-0.247-0.572v0c-0.066-0.221-0.079-0.397-0.039-0.53 0.04-0.132 0.202-0.462 0.486-0.987v0l0.077-0.144c0.383-0.711 0.728-1.123 1.035-1.235v0c0.257-0.077 0.456-0.102 0.594-0.073 0.139 0.028 0.435 0.165 0.89 0.409z" fill="#009b7d" data-fill-palette-color="primary"></path><path d="M28.119 66.412l-1.584-1.213 0.867-1.132c0.297-0.388 0.527-0.631 0.688-0.73 0.157-0.093 0.443-0.187 0.856-0.28v0c0.544-0.13 0.946-0.096 1.205 0.102v0l0.099-0.129c-0.259-0.198-0.346-0.642-0.263-1.331v0c0.06-0.57 0.123-0.941 0.187-1.114 0.064-0.173 0.245-0.454 0.542-0.841v0l4.379-5.714c0.396-0.517 1.008-0.869 1.836-1.056v0l1.241-0.28c0.827-0.187 1.564-0.033 2.211 0.463v0l13.237 10.145-2.081 2.716-12.559-9.626c-0.323-0.248-0.546-0.393-0.667-0.434-0.122-0.042-0.332-0.024-0.632 0.054-0.299 0.078-0.507 0.159-0.622 0.242-0.115 0.083-0.319 0.316-0.612 0.698v0l-3.171 4.138c-0.297 0.388-0.478 0.668-0.542 0.842-0.064 0.173-0.127 0.544-0.187 1.114-0.06 0.57-0.061 0.928-0.003 1.075 0.058 0.147 0.249 0.345 0.572 0.592v0l12.235 9.378-2.075 2.707-12.558-9.625c-0.323-0.248-0.546-0.393-0.668-0.435-0.122-0.042-0.332-0.024-0.631 0.055-0.299 0.078-0.51 0.096-0.632 0.054-0.122-0.042-0.344-0.187-0.668-0.435z" fill="#009b7d" data-fill-palette-color="primary"></path><path d="M56.666 37.529v0l-4.465 3.738c-0.375 0.314-0.601 0.53-0.679 0.648-0.078 0.118-0.15 0.329-0.215 0.632-0.065 0.303-0.074 0.514-0.028 0.633 0.047 0.12 0.202 0.336 0.463 0.649v0l7.255 8.666c0.261 0.312 0.447 0.502 0.557 0.569 0.11 0.068 0.319 0.096 0.628 0.085 0.309-0.011 0.529-0.045 0.66-0.101 0.13-0.056 0.383-0.241 0.757-0.554v0l4.435-3.712c0.375-0.314 0.612-0.548 0.712-0.703 0.1-0.155 0.24-0.502 0.418-1.04 0.183-0.543 0.262-0.892 0.237-1.049-0.025-0.156-0.168-0.391-0.429-0.703v0l-6.503-7.768c-0.344-0.411-0.94-0.616-1.789-0.614-0.843-0.002-1.514 0.205-2.014 0.624zM68.238 50.654v0l-5.964 4.993c-0.5 0.418-1.171 0.626-2.014 0.624v0l-1.273 0.003c-0.848 0.002-1.534-0.309-2.056-0.934v0l-8.353-9.978c-0.523-0.625-0.709-1.354-0.558-2.189v0l0.227-1.252c0.146-0.83 0.469-1.455 0.968-1.873v0l5.496-4.601c0.5-0.418 1.171-0.626 2.014-0.624v0c0.918 0.081 1.429 0.185 1.534 0.31v0l0.125-0.105-7.575-9.048 2.623-2.196 16.425 19.619c0.261 0.312 0.447 0.502 0.556 0.57 0.11 0.068 0.319 0.096 0.629 0.085 0.309-0.011 0.519 0.017 0.629 0.084 0.11 0.068 0.295 0.257 0.556 0.57v0l1.281 1.53-1.093 0.915c-0.375 0.314-0.652 0.501-0.83 0.563-0.179 0.061-0.48 0.092-0.905 0.093v0c-0.56 0.008-0.944-0.113-1.153-0.363v0l-0.125 0.105c0.209 0.25 0.198 0.702-0.033 1.356v0c-0.183 0.543-0.322 0.889-0.418 1.04-0.1 0.155-0.338 0.389-0.713 0.703z" fill="#009b7d" data-fill-palette-color="primary"></path><path d="M94.545 35.263l-6.5-16.24-2.042 0.818c-0.429-0.121-0.702-0.238-0.82-0.352-0.119-0.113-0.294-0.46-0.526-1.04v0l-0.394-0.983 2.723-1.089-1.903-4.755c-0.303-0.756-0.256-1.506 0.141-2.25v0l0.605-1.12c0.403-0.746 0.907-1.24 1.512-1.482v0l4.537-1.816c0.429 0.121 0.702 0.238 0.821 0.351 0.119 0.113 0.294 0.46 0.526 1.04v0l0.393 0.983-4.045 1.619c-0.479 0.192-0.819 0.474-1.021 0.848v0c-0.156 0.267-0.232 0.462-0.227 0.584 0.008 0.129 0.087 0.382 0.238 0.76v0l1.589 3.97 4.235-1.695c0.429 0.121 0.702 0.238 0.821 0.352 0.119 0.113 0.294 0.46 0.526 1.039v0l0.393 0.983-4.915 1.968 6.5 16.24z" fill="#009b7d" data-fill-palette-color="primary"></path><path d="M109.126 9.432v0l9.553-2.021c0.638-0.135 1.331-0.004 2.082 0.393v0l1.124 0.594c0.75 0.396 1.209 0.993 1.378 1.79v0l2.693 12.731c0.169 0.797-0.01 1.528-0.535 2.194v0l-0.788 1c-0.525 0.666-1.106 1.067-1.744 1.201v0l-9.553 2.021c-0.638 0.135-1.328 0.003-2.071-0.395v0l-1.125-0.594c-0.75-0.396-1.209-0.993-1.377-1.79v0l-2.693-12.731c-0.169-0.797 0.01-1.528 0.535-2.194v0l0.787-1c0.519-0.665 1.097-1.065 1.734-1.199zM122.432 22.79v0l-2.339-11.057c-0.084-0.398-0.159-0.653-0.224-0.764-0.065-0.111-0.237-0.234-0.515-0.37-0.278-0.135-0.488-0.209-0.63-0.221-0.141-0.012-0.448 0.032-0.919 0.132v0l-6.614 1.399c-0.478 0.101-0.779 0.186-0.904 0.254-0.124 0.068-0.286 0.22-0.486 0.457-0.2 0.237-0.307 0.419-0.322 0.546-0.015 0.128 0.02 0.391 0.105 0.79v0l2.339 11.057c0.084 0.398 0.159 0.653 0.224 0.765 0.065 0.111 0.237 0.234 0.515 0.369 0.278 0.135 0.488 0.209 0.63 0.221 0.141 0.012 0.451-0.033 0.929-0.134v0l6.614-1.399c0.472-0.1 0.769-0.184 0.894-0.252 0.124-0.068 0.286-0.22 0.486-0.456 0.2-0.237 0.307-0.419 0.322-0.547 0.015-0.128-0.02-0.391-0.105-0.79z" fill="#009b7d" data-fill-palette-color="primary"></path><path d="M134.448 7.867l-0.019-1.996 1.426-0.013c0.489-0.005 0.822 0.026 0.998 0.092 0.17 0.066 0.42 0.234 0.748 0.502v0c0.438 0.349 0.658 0.686 0.661 1.012v0l0.163-0.001c-0.003-0.326 0.292-0.668 0.887-1.027v0c0.486-0.303 0.817-0.483 0.993-0.538 0.176-0.056 0.508-0.086 0.997-0.091v0l3.746-0.035c0.652-0.006 1.306 0.259 1.963 0.796v0l0.975 0.805-2.415 2.059-0.492-0.402c-0.246-0.188-0.437-0.301-0.574-0.341-0.136-0.039-0.449-0.057-0.937-0.053v0l-1.751 0.017c-0.489 0.005-0.821 0.035-0.997 0.091-0.176 0.056-0.507 0.236-0.993 0.538-0.486 0.303-0.769 0.523-0.849 0.66-0.08 0.137-0.118 0.408-0.114 0.816v0l0.144 15.414-3.41 0.032-0.149-15.821c-0.004-0.407-0.027-0.672-0.069-0.794-0.042-0.122-0.186-0.277-0.432-0.464-0.246-0.188-0.39-0.343-0.432-0.465-0.042-0.122-0.065-0.386-0.068-0.793z" fill="#009b7d" data-fill-palette-color="primary"></path><path d="M193.305 39.551l-4.352-1.702 3.383-24.98 0.178-1.013-0.152-0.059-0.557 0.864-14.335 20.698-4.476-1.75 3.249-29.308 3.376 1.32-3.445 25.558-0.181 1.023 0.19 0.074 0.522-0.889 14.73-21.145 4.21 1.646-3.369 25.587-0.144 1.038 0.152 0.059 0.523-0.889 14.625-21.186 3.366 1.316z" fill="#009b7d" data-fill-palette-color="primary"></path><path d="M216.912 52.375v0l-0.132-0.096c-0.192 0.263-0.634 0.36-1.324 0.293v0c-0.565-0.044-0.935-0.096-1.11-0.156-0.174-0.06-0.459-0.235-0.853-0.524v0l-5.62-4.113c-0.526-0.385-0.889-0.987-1.088-1.806v0l-0.308-1.235c-0.205-0.823-0.067-1.563 0.414-2.22v0l2.881-3.936c0.481-0.657 1.145-1.013 1.991-1.066v0l1.27-0.08c0.841-0.057 1.525 0.106 2.05 0.491v0l5.883 4.306c0.416 0.305 0.667 0.514 0.753 0.627 0.086 0.113 0.157 0.308 0.214 0.586v0c0.103 0.412 0.074 0.727-0.086 0.946v0l0.131 0.096 2.857-3.903c0.241-0.329 0.38-0.554 0.419-0.677 0.039-0.123 0.016-0.333-0.068-0.63-0.085-0.298-0.167-0.501-0.248-0.61-0.086-0.113-0.325-0.314-0.719-0.603v0l-5.325-3.897c-0.394-0.289-0.683-0.458-0.865-0.507-0.183-0.049-0.591-0.054-1.226-0.014v0l-0.761-3.081 1.27-0.08c0.635-0.04 1.041-0.037 1.218 0.009 0.183 0.049 0.471 0.219 0.865 0.507v0l7.715 5.646c0.526 0.385 0.891 0.989 1.097 1.812v0l0.307 1.235c0.205 0.823 0.067 1.563-0.414 2.22v0l-7.18 9.811c-0.241 0.329-0.38 0.554-0.419 0.677-0.039 0.123-0.016 0.333 0.068 0.63 0.085 0.298 0.108 0.508 0.068 0.631-0.039 0.123-0.179 0.348-0.419 0.677v0l-1.179 1.61-1.15-0.842c-0.394-0.289-0.643-0.512-0.745-0.671-0.102-0.159-0.205-0.444-0.308-0.856v0c-0.142-0.541-0.117-0.944 0.076-1.207zM212.019 41.287v0l-1.87 2.555c-0.241 0.329-0.38 0.554-0.42 0.677-0.039 0.123-0.016 0.333 0.068 0.631 0.085 0.298 0.17 0.503 0.256 0.616 0.086 0.113 0.325 0.314 0.72 0.602v0l4.009 2.935c0.394 0.289 0.679 0.463 0.854 0.523 0.174 0.06 0.547 0.114 1.118 0.162 0.565 0.044 0.921 0.035 1.066-0.026 0.146-0.061 0.339-0.256 0.58-0.585v0l1.63-2.227c0.241-0.329 0.38-0.554 0.42-0.677 0.039-0.123 0.016-0.333-0.069-0.631-0.085-0.298-0.167-0.501-0.247-0.61-0.086-0.113-0.325-0.314-0.72-0.602v0l-4.798-3.512c-0.394-0.289-0.658-0.457-0.792-0.504-0.134-0.047-0.355-0.066-0.665-0.057-0.309 0.009-0.517 0.051-0.622 0.125-0.105 0.075-0.278 0.276-0.518 0.605z" fill="#009b7d" data-fill-palette-color="primary"></path><path d="M244.536 45.037l2.301 2.518-4.202 3.839 3.516 3.849c0.038 0.444 0.024 0.741-0.04 0.891-0.064 0.151-0.327 0.437-0.788 0.858v0l-0.782 0.715-4.011-4.39-9.576 8.749c-0.301 0.275-0.482 0.468-0.545 0.581-0.063 0.112-0.082 0.323-0.058 0.632 0.025 0.309 0.068 0.527 0.129 0.654 0.062 0.128 0.257 0.372 0.587 0.733v0l2.5 2.736c0.038 0.444 0.024 0.741-0.04 0.892-0.064 0.151-0.327 0.437-0.788 0.858v0l-0.782 0.714-4.011-4.389c-0.44-0.481-0.679-1.145-0.717-1.993v0l-0.051-1.264c-0.039-0.847 0.243-1.546 0.844-2.095v0l10.208-9.326-1.319-1.443c-0.038-0.444-0.024-0.741 0.04-0.892 0.064-0.151 0.327-0.437 0.788-0.858v0l0.782-0.715 1.813 1.985z" fill="#009b7d" data-fill-palette-color="primary"></path><path d="M259.128 80.74l-1.365 0.87-1.837-2.887 0.644-0.41c0.344-0.219 0.558-0.375 0.643-0.469 0.081-0.1 0.136-0.304 0.165-0.612 0.029-0.308 0.024-0.53-0.014-0.667-0.039-0.136-0.189-0.411-0.451-0.823v0l-2.93-4.604c-0.262-0.412-0.447-0.665-0.555-0.758-0.107-0.093-0.307-0.191-0.598-0.295-0.292-0.104-0.5-0.141-0.625-0.109-0.125 0.031-0.359 0.156-0.702 0.375v0l-9.535 6.067c-0.344 0.219-0.556 0.378-0.637 0.478-0.081 0.1-0.136 0.304-0.166 0.613-0.029 0.308-0.024 0.53 0.014 0.666 0.039 0.136 0.189 0.411 0.451 0.824v0l2.931 4.604c0.262 0.412 0.447 0.665 0.554 0.757 0.107 0.093 0.307 0.191 0.598 0.295 0.292 0.104 0.5 0.141 0.625 0.11 0.121-0.037 0.354-0.165 0.697-0.384v0l0.644-0.41 1.837 2.886-1.366 0.87c-0.687 0.437-1.435 0.527-2.242 0.268v0l-1.212-0.387c-0.808-0.258-1.385-0.659-1.732-1.203v0l-4.548-7.147c-0.35-0.55-0.469-1.242-0.357-2.078v0l0.163-1.262c0.108-0.841 0.506-1.481 1.193-1.918v0l10.978-6.986c0.687-0.437 1.435-0.527 2.243-0.269v0l1.212 0.387c0.804 0.252 1.381 0.654 1.731 1.204v0l4.548 7.147c0.346 0.544 0.465 1.237 0.357 2.078v0l-0.162 1.261c-0.108 0.841-0.506 1.481-1.194 1.918z" fill="#009b7d" data-fill-palette-color="primary"></path><path d="M269.175 95.133v0l2.517 6.658c0.23 0.61 0.207 1.315-0.071 2.116v0l-0.416 1.202c-0.278 0.802-0.797 1.346-1.56 1.635v0l-15.6 5.897-1.21-3.2 14.801-5.595c0.381-0.144 0.621-0.257 0.721-0.338 0.1-0.081 0.196-0.27 0.287-0.565 0.094-0.289 0.136-0.505 0.126-0.647-0.01-0.141-0.101-0.441-0.274-0.898v0l-1.844-4.876c-0.182-0.483-0.33-0.797-0.443-0.943-0.113-0.146-0.396-0.395-0.848-0.746-0.452-0.352-0.756-0.541-0.912-0.569-0.156-0.028-0.424 0.03-0.805 0.173v0l-14.42 5.451-1.206-3.191 28.163-10.645 1.206 3.191-10.924 4.129 0.058 0.152c0.229-0.086 0.69 0.059 1.383 0.435 0.694 0.376 1.117 0.768 1.271 1.174z" fill="#009b7d" data-fill-palette-color="primary"></path><path d="M0.388 144.774c0-6.352 5.149-11.501 11.501-11.502 6.352 0 11.501 5.149 11.501 11.502 0 6.352-5.149 11.501-11.501 11.501-6.352 0-11.501-5.149-11.501-11.501z" fill="#009b7d" data-fill-palette-color="primary"></path><path d="M256.718 144.774c0-6.352 5.149-11.501 11.501-11.502 6.352 0 11.501 5.149 11.501 11.502 0 6.352-5.149 11.501-11.501 11.501-6.352 0-11.501-5.149-11.501-11.501z" fill="#009b7d" data-fill-palette-color="primary"></path></g><g id="text-1"><path d="M23.852 185.394l-0.576 0.17-0.358-1.211 0.274-0.081c0.143-0.042 0.236-0.077 0.277-0.103 0.042-0.026 0.083-0.092 0.123-0.195 0.04-0.104 0.059-0.184 0.057-0.24 0.006-0.051-0.017-0.165-0.069-0.341v0l-1.048-3.554c-0.052-0.176-0.094-0.284-0.127-0.324-0.028-0.048-0.088-0.105-0.178-0.17-0.09-0.065-0.16-0.098-0.209-0.098-0.049 0-0.146 0.022-0.289 0.064v0l-6.866 2.025c-0.143 0.042-0.232 0.076-0.267 0.1-0.042 0.026-0.083 0.092-0.123 0.195-0.047 0.106-0.069 0.187-0.067 0.243 0 0.049 0.027 0.162 0.079 0.338v0l1.048 3.555c0.052 0.176 0.091 0.285 0.118 0.326 0.028 0.048 0.091 0.104 0.187 0.167 0.09 0.065 0.16 0.098 0.209 0.098 0.043 0.002 0.136-0.019 0.279-0.061v0l0.274-0.081 0.357 1.211-0.576 0.17c-0.286 0.084-0.558 0.041-0.814-0.131v0l-0.397-0.266c-0.256-0.172-0.418-0.372-0.484-0.6v0l-1.365-4.629c-0.067-0.228-0.04-0.484 0.081-0.767v0l0.189-0.438c0.122-0.284 0.326-0.468 0.613-0.552v0l7.471-2.203c0.286-0.084 0.561-0.042 0.823 0.129v0l0.387 0.268c0.256 0.172 0.418 0.372 0.485 0.6v0l1.365 4.629c0.067 0.228 0.04 0.484-0.082 0.767v0l-0.179 0.435c-0.128 0.285-0.335 0.47-0.622 0.555z" fill="#009b7d" data-fill-palette-color="secondary"></path><path d="M23.867 189.989v0l0.935 2.444c0.087 0.228 0.082 0.488-0.017 0.781v0l-0.149 0.438c-0.105 0.295-0.297 0.495-0.576 0.603v0l-5.734 2.194-0.448-1.17 5.44-2.081c0.139-0.053 0.229-0.095 0.268-0.125 0.033-0.027 0.068-0.099 0.104-0.214 0.032-0.107 0.046-0.185 0.041-0.234-0.007-0.056-0.042-0.166-0.105-0.33v0l-0.684-1.788c-0.068-0.178-0.124-0.294-0.167-0.351-0.035-0.052-0.138-0.143-0.311-0.273-0.165-0.126-0.275-0.196-0.332-0.211-0.06-0.006-0.16 0.018-0.3 0.071v0l-5.296 2.027-0.452-1.179 10.346-3.959 0.452 1.179-4.013 1.536 0.022 0.057c0.082-0.032 0.251 0.02 0.506 0.155 0.255 0.135 0.412 0.278 0.47 0.43z" fill="#009b7d" data-fill-palette-color="secondary"></path><path d="M26.926 197.285v0l1.518 3.257c0.1 0.215 0.111 0.472 0.033 0.771v0l-0.113 0.457c-0.084 0.301-0.262 0.515-0.532 0.641v0l-4.347 2.026c-0.271 0.126-0.545 0.123-0.825-0.01v0l-0.431-0.203c-0.279-0.132-0.468-0.306-0.569-0.521v0l-1.518-3.258c-0.1-0.215-0.113-0.475-0.037-0.78v0l0.126-0.452c0.078-0.298 0.253-0.511 0.523-0.637v0l4.347-2.025c0.271-0.126 0.549-0.125 0.834 0.005v0l0.418 0.198c0.282 0.138 0.473 0.315 0.573 0.531zM23.242 203.168v0l3.775-1.759c0.135-0.063 0.22-0.114 0.254-0.152 0.031-0.03 0.062-0.1 0.093-0.211 0.024-0.109 0.031-0.19 0.02-0.246-0.008-0.049-0.05-0.156-0.127-0.322v0l-1.05-2.252c-0.075-0.16-0.129-0.262-0.164-0.305-0.032-0.037-0.098-0.082-0.197-0.133-0.105-0.048-0.18-0.073-0.226-0.075-0.049 0.008-0.141 0.043-0.276 0.106v0l-3.775 1.759c-0.135 0.063-0.219 0.109-0.25 0.139-0.034 0.039-0.064 0.112-0.088 0.221-0.03 0.112-0.042 0.192-0.034 0.24 0.011 0.055 0.053 0.162 0.128 0.322v0l1.049 2.252c0.077 0.166 0.132 0.268 0.165 0.306 0.035 0.043 0.105 0.089 0.21 0.137 0.099 0.051 0.173 0.073 0.222 0.066 0.046 0.001 0.136-0.03 0.271-0.093z" fill="#009b7d" data-fill-palette-color="secondary"></path><path d="M30.912 205.236v0l1.746 3.141c0.115 0.208 0.145 0.463 0.088 0.767v0l-0.08 0.464c-0.063 0.307-0.224 0.532-0.485 0.677v0l-4.191 2.331c-0.261 0.145-0.535 0.162-0.823 0.049v0l-0.445-0.172c-0.287-0.112-0.489-0.272-0.605-0.479v0l-1.746-3.141c-0.115-0.208-0.147-0.466-0.093-0.776v0l0.093-0.46c0.057-0.303 0.215-0.528 0.477-0.672v0l4.191-2.331c0.261-0.145 0.538-0.163 0.832-0.054v0l0.431 0.168c0.291 0.118 0.494 0.281 0.61 0.488zM27.657 211.368v0l3.64-2.024c0.131-0.073 0.212-0.129 0.243-0.17 0.029-0.032 0.055-0.104 0.077-0.218 0.016-0.11 0.017-0.192 0.003-0.246-0.011-0.048-0.061-0.152-0.151-0.312v0l-1.207-2.172c-0.086-0.154-0.148-0.252-0.186-0.292-0.035-0.035-0.104-0.074-0.206-0.119-0.108-0.041-0.185-0.06-0.23-0.058-0.048 0.011-0.137 0.053-0.268 0.125v0l-3.64 2.024c-0.131 0.073-0.21 0.125-0.239 0.156-0.032 0.041-0.056 0.116-0.072 0.227-0.022 0.113-0.028 0.194-0.017 0.242 0.015 0.054 0.065 0.158 0.151 0.313v0l1.207 2.171c0.089 0.16 0.151 0.258 0.186 0.293 0.038 0.041 0.111 0.082 0.219 0.122 0.102 0.044 0.177 0.061 0.226 0.049 0.045-0.002 0.133-0.039 0.264-0.111z" fill="#009b7d" data-fill-palette-color="secondary"></path><path d="M33.206 215.18l1.429 2.192c0.13 0.199 0.176 0.456 0.139 0.773v0l-0.052 0.459c-0.041 0.31-0.186 0.547-0.437 0.71v0l-1.382 0.901c-0.25 0.163-0.523 0.199-0.817 0.108v0l-0.45-0.132c-0.298-0.097-0.512-0.245-0.643-0.444v0l-1.818-2.789c-0.13-0.199-0.177-0.452-0.142-0.758v0l0.061-0.466c0.031-0.312 0.172-0.55 0.423-0.713v0l0.503-0.328 0.689 1.058-0.238 0.156c-0.125 0.082-0.201 0.139-0.228 0.172-0.032 0.037-0.053 0.111-0.062 0.223-0.011 0.12-0.009 0.204 0.006 0.251 0.015 0.047 0.072 0.148 0.172 0.301v0l1.213 1.86c0.096 0.148 0.163 0.238 0.2 0.27 0.041 0.038 0.117 0.074 0.228 0.107 0.105 0.037 0.181 0.048 0.228 0.033 0.045-0.005 0.13-0.049 0.256-0.13v0l1.015-0.662c0.061-0.056 0.104-0.157 0.13-0.304v0c0.009-0.111 0.004-0.193-0.015-0.245-0.009-0.051-0.062-0.15-0.158-0.299v0l-1.434-2.2c-0.13-0.199-0.177-0.452-0.142-0.758v0l0.047-0.469c0.041-0.31 0.186-0.547 0.436-0.71v0l1.254-0.817c0.25-0.163 0.525-0.201 0.826-0.113v0l0.447 0.146c0.295 0.091 0.507 0.237 0.637 0.435v0l1.735 2.661c0.13 0.199 0.179 0.455 0.148 0.767v0l-0.053 0.46c-0.041 0.31-0.186 0.547-0.437 0.71v0l-0.503 0.328-0.684-1.049 0.239-0.156c0.125-0.082 0.202-0.144 0.231-0.187 0.027-0.034 0.047-0.108 0.061-0.222 0.009-0.111 0.004-0.193-0.014-0.246-0.015-0.047-0.07-0.145-0.167-0.292v0l-1.129-1.732c-0.1-0.154-0.169-0.246-0.206-0.279-0.041-0.038-0.114-0.076-0.219-0.112-0.111-0.033-0.187-0.044-0.228-0.033-0.051 0.009-0.139 0.054-0.264 0.135v0l-0.725 0.473c-0.125 0.082-0.202 0.144-0.231 0.187-0.027 0.034-0.047 0.108-0.061 0.222-0.009 0.111-0.004 0.193 0.014 0.246 0.015 0.047 0.072 0.148 0.172 0.301z" fill="#009b7d" data-fill-palette-color="secondary"></path><path d="M37.984 226.987v0l-0.052 1.163-0.458-0.1c-0.226-0.051-0.367-0.097-0.424-0.139-0.059-0.032-0.143-0.122-0.254-0.267v0l-2.416-3.19c-0.143-0.189-0.208-0.438-0.195-0.746v0l0.028-0.469c0.009-0.314 0.133-0.561 0.371-0.741v0l3.823-2.895c0.238-0.18 0.512-0.235 0.822-0.163v0l0.451 0.106c0.3 0.071 0.522 0.2 0.665 0.39v0l2.109 2.784c0.123 0.162 0.19 0.414 0.201 0.754v0l-0.014 0.471c0.001 0.305-0.125 0.554-0.379 0.747v0l-2.451 1.856-3.093-4.082-1.12 0.848c-0.119 0.09-0.191 0.153-0.215 0.188-0.03 0.04-0.045 0.115-0.045 0.227-0.002 0.121 0.006 0.204 0.023 0.25 0.018 0.046 0.082 0.142 0.193 0.288v0l1.752 2.314c0.111 0.146 0.195 0.235 0.254 0.267 0.057 0.042 0.199 0.088 0.424 0.139zM37.498 221.876l2.329 3.076 1.421-1.076c0.119-0.09 0.193-0.155 0.223-0.195 0.024-0.035 0.04-0.111 0.046-0.226-0.003-0.117-0.014-0.198-0.032-0.244-0.018-0.046-0.082-0.142-0.193-0.288v0l-1.445-1.908c-0.111-0.146-0.186-0.234-0.225-0.263-0.04-0.03-0.115-0.062-0.226-0.097-0.113-0.025-0.19-0.031-0.23-0.017-0.046 0.018-0.129 0.072-0.248 0.162v0z" fill="#009b7d" data-fill-palette-color="secondary"></path><path d="M50.961 234.378l-0.438 0.411-0.863-0.921 0.208-0.195c0.109-0.102 0.176-0.174 0.201-0.217 0.02-0.038 0.025-0.117 0.015-0.237-0.011-0.111-0.027-0.188-0.05-0.232-0.027-0.049-0.101-0.138-0.222-0.267v0l-1.371-1.464c-0.125-0.134-0.209-0.213-0.252-0.239-0.042-0.025-0.121-0.05-0.235-0.072-0.115-0.013-0.192-0.011-0.231 0.007-0.044 0.023-0.12 0.085-0.229 0.187v0l-3.039 2.847c-0.109 0.102-0.174 0.172-0.194 0.21-0.025 0.042-0.033 0.119-0.022 0.229 0.01 0.12 0.027 0.203 0.049 0.247 0.023 0.044 0.097 0.133 0.222 0.267v0l1.372 1.463c0.121 0.129 0.204 0.208 0.251 0.239 0.042 0.025 0.121 0.045 0.236 0.058 0.115 0.023 0.194 0.023 0.238 0.001 0.039-0.018 0.113-0.078 0.222-0.18v0l0.208-0.195 0.863 0.921-0.439 0.411c-0.218 0.204-0.482 0.284-0.793 0.241v0l-0.466-0.052c-0.306-0.039-0.543-0.147-0.71-0.325v0l-2.13-2.274c-0.162-0.173-0.253-0.414-0.272-0.722v0l-0.02-0.469c-0.023-0.313 0.074-0.571 0.291-0.776v0l3.5-3.278c0.218-0.204 0.485-0.287 0.801-0.248v0l0.459 0.058c0.306 0.039 0.54 0.145 0.703 0.319v0l2.13 2.273c0.167 0.178 0.26 0.421 0.278 0.73v0l0.028 0.462c0.018 0.318-0.081 0.578-0.299 0.782z" fill="#009b7d" data-fill-palette-color="secondary"></path><path d="M52.809 243.691v0l-0.045-0.041c-0.083 0.089-0.248 0.108-0.495 0.054v0c-0.208-0.045-0.342-0.081-0.4-0.108-0.064-0.031-0.16-0.107-0.29-0.227v0l-1.879-1.747c-0.174-0.162-0.281-0.396-0.321-0.702v0l-0.06-0.473c-0.04-0.306 0.042-0.568 0.245-0.787v0l1.227-1.32c0.203-0.219 0.459-0.319 0.767-0.302v0l0.476 0.026c0.308 0.018 0.549 0.107 0.723 0.269v0l1.962 1.823c0.139 0.129 0.224 0.218 0.254 0.265 0.026 0.042 0.045 0.116 0.059 0.221v0c0.015 0.153-0.012 0.267-0.081 0.341v0l0.044 0.042 1.213-1.305c0.102-0.109 0.164-0.186 0.186-0.23 0.018-0.039 0.02-0.116 0.006-0.231-0.023-0.114-0.048-0.193-0.073-0.235-0.026-0.042-0.105-0.126-0.24-0.251v0l-1.775-1.65c-0.129-0.12-0.226-0.196-0.289-0.227-0.068-0.026-0.218-0.045-0.449-0.055v0l-0.143-1.162 0.462 0.026c0.231 0.011 0.381 0.029 0.449 0.056 0.064 0.031 0.16 0.107 0.289 0.227v0l2.581 2.398c0.174 0.162 0.281 0.396 0.321 0.702v0l0.067 0.466c0.035 0.311-0.049 0.576-0.252 0.794v0l-3.05 3.282c-0.102 0.109-0.161 0.184-0.179 0.222-0.022 0.044-0.022 0.123 0.001 0.238 0.014 0.115 0.012 0.192-0.006 0.231-0.022 0.044-0.084 0.121-0.186 0.23v0l-0.499 0.537-0.38-0.354c-0.134-0.125-0.214-0.218-0.241-0.279-0.036-0.061-0.064-0.171-0.084-0.328v0c-0.027-0.201 0.002-0.346 0.085-0.436zM51.493 239.424v0l-0.797 0.857c-0.102 0.109-0.159 0.186-0.172 0.23-0.022 0.044-0.024 0.121-0.006 0.231 0.014 0.115 0.036 0.196 0.067 0.242 0.026 0.042 0.105 0.126 0.239 0.251v0l1.335 1.241c0.129 0.12 0.226 0.196 0.29 0.227 0.064 0.031 0.197 0.067 0.4 0.108 0.208 0.045 0.341 0.057 0.397 0.036 0.052-0.016 0.129-0.079 0.231-0.189v0l0.693-0.746c0.102-0.109 0.164-0.186 0.186-0.23 0.018-0.039 0.02-0.116 0.006-0.231-0.023-0.114-0.048-0.193-0.073-0.235-0.026-0.042-0.105-0.126-0.24-0.25v0l-1.596-1.484c-0.134-0.125-0.223-0.198-0.267-0.22-0.049-0.027-0.129-0.046-0.24-0.057-0.115-0.005-0.192 0.002-0.23 0.023-0.047 0.021-0.122 0.086-0.223 0.196z" fill="#009b7d" data-fill-palette-color="secondary"></path><path d="M59.934 241.704l0.462-0.569 0.411 0.334c0.137 0.111 0.225 0.196 0.265 0.255 0.03 0.06 0.061 0.167 0.092 0.323v0c0.04 0.199 0.024 0.343-0.05 0.432v0l0.048 0.039c0.073-0.09 0.237-0.114 0.492-0.073v0c0.205 0.027 0.341 0.054 0.406 0.081 0.06 0.023 0.162 0.092 0.304 0.207v0l1.067 0.866c0.184 0.15 0.31 0.378 0.375 0.685v0l0.091 0.454-1.171 0.02-0.046-0.234c-0.026-0.108-0.053-0.183-0.081-0.223-0.034-0.045-0.119-0.123-0.256-0.234v0l-0.506-0.411c-0.137-0.111-0.238-0.18-0.303-0.207-0.056-0.028-0.191-0.055-0.407-0.081-0.205-0.027-0.336-0.033-0.393-0.017-0.055 0.025-0.13 0.096-0.224 0.212v0l-3.574 4.403-0.972-0.79 3.67-4.521c0.094-0.116 0.148-0.199 0.163-0.249 0.015-0.04 0.012-0.117-0.01-0.23-0.026-0.108-0.032-0.187-0.017-0.238 0.015-0.04 0.07-0.118 0.164-0.234z" fill="#009b7d" data-fill-palette-color="secondary"></path><path d="M66.832 253.666v0l0.297 1.126-0.468 0.042c-0.23 0.019-0.379 0.017-0.446-0.006-0.065-0.013-0.173-0.073-0.322-0.18v0l-3.256-2.326c-0.193-0.138-0.329-0.356-0.409-0.654v0l-0.112-0.456c-0.084-0.302-0.04-0.575 0.134-0.818v0l2.787-3.902c0.174-0.243 0.419-0.376 0.736-0.401v0l0.461-0.033c0.308-0.022 0.558 0.036 0.752 0.174v0l2.842 2.03c0.166 0.118 0.305 0.338 0.417 0.66v0l0.126 0.454c0.092 0.291 0.046 0.567-0.139 0.826v0l-1.787 2.502-4.168-2.976-0.817 1.143c-0.087 0.122-0.137 0.203-0.149 0.244-0.017 0.047-0.009 0.123 0.024 0.229 0.034 0.116 0.066 0.193 0.097 0.232 0.031 0.039 0.121 0.111 0.27 0.218v0l2.361 1.687c0.149 0.107 0.256 0.166 0.322 0.18 0.067 0.023 0.216 0.025 0.447 0.005zM64.845 248.932l3.14 2.243 1.036-1.45c0.087-0.122 0.138-0.206 0.155-0.252 0.013-0.041 0.005-0.118-0.024-0.23-0.038-0.11-0.072-0.185-0.103-0.224-0.031-0.039-0.121-0.111-0.27-0.217v0l-1.947-1.391c-0.149-0.107-0.247-0.168-0.293-0.185-0.047-0.017-0.128-0.025-0.245-0.024-0.115 0.009-0.19 0.027-0.225 0.052-0.039 0.031-0.101 0.107-0.188 0.228v0z" fill="#009b7d" data-fill-palette-color="secondary"></path><path d="M69.704 257.127l3.403-5.461-0.683-0.426c-0.056-0.155-0.081-0.262-0.075-0.322 0.006-0.06 0.07-0.189 0.192-0.385v0l0.204-0.328 0.916 0.571 1.002-1.608c0.158-0.253 0.393-0.399 0.704-0.437v0l0.464-0.071c0.306-0.041 0.562 0.002 0.769 0.132v0l1.521 0.948c0.056 0.155 0.081 0.262 0.075 0.322-0.006 0.06-0.07 0.189-0.191 0.385v0l-0.205 0.328-1.365-0.85c-0.161-0.101-0.318-0.138-0.47-0.113v0c-0.117 0.007-0.193 0.028-0.23 0.061-0.033 0.027-0.089 0.104-0.168 0.231v0l-0.834 1.339 1.426 0.889c0.059 0.149 0.083 0.252 0.071 0.308-0.009 0.066-0.073 0.194-0.191 0.385v0l-0.21 0.337-1.651-1.029-3.403 5.462z" fill="#009b7d" data-fill-palette-color="secondary"></path><path d="M77.913 261.887v0l-2.062-1.133c-0.208-0.114-0.369-0.315-0.482-0.602v0l-0.166-0.439c-0.119-0.29-0.107-0.566 0.037-0.828v0l2.956-5.381 1.106 0.608-2.803 5.104c-0.072 0.131-0.112 0.217-0.12 0.26-0.011 0.048 0.006 0.123 0.051 0.225 0.047 0.111 0.089 0.184 0.123 0.219 0.035 0.035 0.133 0.096 0.294 0.185v0l1.419 0.779c0.155 0.085 0.267 0.135 0.336 0.15 0.063 0.012 0.201 0.014 0.414 0.007 0.207-0.01 0.338-0.031 0.395-0.063 0.047-0.029 0.106-0.108 0.178-0.239v0l2.73-4.971 1.106 0.608-2.803 5.105c-0.072 0.131-0.112 0.217-0.12 0.26-0.011 0.048 0.006 0.123 0.051 0.225 0.041 0.108 0.061 0.185 0.059 0.23-0.011 0.048-0.052 0.138-0.124 0.269v0l-0.353 0.642-0.464-0.255c-0.155-0.085-0.255-0.156-0.302-0.212-0.044-0.047-0.095-0.145-0.152-0.293v0c-0.075-0.188-0.083-0.336-0.024-0.443v0l-0.054-0.029c-0.059 0.107-0.217 0.163-0.476 0.168v0c-0.207 0.01-0.345 0.008-0.414-0.007-0.063-0.012-0.175-0.061-0.336-0.149z" fill="#009b7d" data-fill-palette-color="secondary"></path><path d="M83.264 263.391l4.336-8.976 1.127 0.545-4.003 8.288c-0.1 0.208-0.153 0.341-0.159 0.398-0.005 0.058 0.029 0.15 0.104 0.277v0c0.072 0.148 0.105 0.251 0.1 0.308 0.001 0.061-0.049 0.195-0.149 0.403v0l-0.253 0.522-0.403-0.195c-0.171-0.083-0.28-0.146-0.326-0.191-0.046-0.045-0.114-0.146-0.205-0.302v0l-0.196-0.344c-0.093-0.151-0.139-0.259-0.136-0.326 0.008-0.064 0.063-0.2 0.163-0.407z" fill="#009b7d" data-fill-palette-color="secondary"></path><path d="M87.513 265.347l4.012-9.125 1.147 0.504-3.705 8.426c-0.093 0.211-0.141 0.346-0.144 0.404-0.003 0.058 0.035 0.149 0.114 0.272v0c0.077 0.145 0.114 0.247 0.11 0.305 0.003 0.061-0.042 0.197-0.134 0.407v0l-0.234 0.532-0.41-0.181c-0.174-0.076-0.285-0.136-0.333-0.179-0.048-0.043-0.119-0.141-0.215-0.295v0l-0.208-0.336c-0.098-0.147-0.148-0.254-0.148-0.321 0.006-0.064 0.055-0.202 0.148-0.413z" fill="#009b7d" data-fill-palette-color="secondary"></path><path d="M94.553 273.503v0l-4.039-1.524 0.137-0.362c0.081-0.216 0.145-0.344 0.189-0.386 0.045-0.041 0.145-0.087 0.302-0.137v0l3.429 1.295c0.171 0.065 0.282 0.099 0.331 0.103 0.049 0.004 0.127-0.01 0.234-0.043 0.115-0.036 0.186-0.071 0.213-0.104 0.029-0.04 0.071-0.129 0.124-0.269v0l1.042-2.763-0.057-0.021c-0.053 0.082-0.214 0.173-0.484 0.274v0c-0.292 0.1-0.552 0.107-0.781 0.021v0l-2.438-0.92c-0.222-0.084-0.41-0.26-0.563-0.528v0l-0.226-0.412c-0.159-0.27-0.186-0.545-0.08-0.825v0l2.168-5.744 1.181 0.446-2.056 5.449c-0.053 0.14-0.08 0.231-0.082 0.274-0.004 0.049 0.023 0.121 0.082 0.216 0.063 0.103 0.114 0.17 0.153 0.199 0.04 0.029 0.145 0.077 0.317 0.141v0l1.791 0.676c0.171 0.065 0.289 0.098 0.353 0.101 0.071 0.005 0.208-0.012 0.412-0.052 0.21-0.037 0.337-0.076 0.381-0.117 0.042-0.035 0.09-0.122 0.143-0.262v0l2.002-5.306 1.181 0.446-3.541 9.383c-0.105 0.279-0.305 0.472-0.599 0.579v0l-0.448 0.147c-0.292 0.1-0.549 0.108-0.771 0.025z" fill="#009b7d" data-fill-palette-color="secondary"></path><path d="M107.515 263.471l1.21 0.324-0.542 2.026 1.859 0.498c0.1 0.125 0.153 0.217 0.158 0.274 0.01 0.066-0.013 0.207-0.071 0.424v0l-0.102 0.383-2.115-0.566-1.235 4.613c-0.039 0.144-0.053 0.239-0.044 0.283 0.001 0.049 0.035 0.118 0.103 0.207 0.066 0.095 0.123 0.156 0.172 0.183 0.042 0.025 0.149 0.061 0.32 0.107v0l1.318 0.353c0.098 0.132 0.153 0.227 0.165 0.286 0.012 0.059-0.012 0.201-0.071 0.424v0l-0.1 0.374-2.115-0.566c-0.23-0.061-0.437-0.219-0.622-0.472v0l-0.265-0.388c-0.179-0.252-0.229-0.522-0.152-0.81v0l1.316-4.918-0.698-0.186c-0.098-0.132-0.153-0.227-0.166-0.287-0.006-0.058 0.021-0.198 0.081-0.421v0l0.1-0.374 0.954 0.255z" fill="#009b7d" data-fill-palette-color="secondary"></path><path d="M114.067 267.21v0l3.521 0.726c0.233 0.048 0.446 0.192 0.638 0.433v0l0.299 0.363c0.192 0.247 0.257 0.517 0.197 0.81v0l-0.968 4.697c-0.06 0.293-0.227 0.511-0.499 0.656v0l-0.42 0.225c-0.272 0.145-0.525 0.193-0.758 0.145v0l-3.52-0.725c-0.233-0.048-0.449-0.193-0.649-0.435v0l-0.287-0.371c-0.193-0.241-0.259-0.507-0.199-0.8v0l0.968-4.697c0.06-0.293 0.227-0.515 0.501-0.666v0l0.409-0.218c0.279-0.143 0.535-0.191 0.767-0.143zM116.592 273.677v0l0.84-4.079c0.03-0.146 0.04-0.245 0.03-0.295-0.005-0.043-0.043-0.109-0.115-0.201-0.073-0.084-0.134-0.139-0.185-0.162-0.044-0.023-0.155-0.053-0.335-0.09v0l-2.433-0.502c-0.173-0.036-0.287-0.052-0.343-0.05-0.049 0.004-0.124 0.03-0.224 0.079-0.102 0.055-0.166 0.101-0.195 0.137-0.023 0.044-0.049 0.139-0.079 0.285v0l-0.841 4.078c-0.03 0.146-0.043 0.241-0.037 0.284 0.01 0.051 0.052 0.118 0.124 0.202 0.071 0.091 0.129 0.148 0.173 0.171 0.05 0.024 0.162 0.054 0.335 0.09v0l2.433 0.501c0.179 0.037 0.294 0.054 0.343 0.05 0.056-0.002 0.135-0.031 0.237-0.087 0.1-0.049 0.162-0.095 0.184-0.138 0.028-0.036 0.057-0.127 0.087-0.273z" fill="#009b7d" data-fill-palette-color="secondary"></path><path d="M130.415 276.51v0l-0.061-0.006c-0.012 0.122-0.132 0.236-0.36 0.344v0c-0.193 0.091-0.321 0.143-0.383 0.157-0.07 0.014-0.192 0.012-0.368-0.004v0l-2.554-0.245c-0.236-0.023-0.464-0.143-0.681-0.362v0l-0.336-0.339c-0.218-0.219-0.312-0.477-0.284-0.774v0l0.172-1.794c0.028-0.297 0.17-0.533 0.425-0.706v0l0.394-0.269c0.255-0.173 0.501-0.249 0.738-0.226v0l2.666 0.256c0.189 0.018 0.31 0.037 0.363 0.055 0.046 0.018 0.106 0.065 0.181 0.14v0c0.105 0.112 0.153 0.219 0.143 0.321v0l0.061 0.005 0.169-1.773c0.014-0.149 0.017-0.247 0.008-0.296-0.01-0.042-0.055-0.104-0.135-0.187-0.088-0.077-0.155-0.124-0.201-0.142-0.046-0.018-0.16-0.036-0.343-0.053v0l-2.412-0.231c-0.176-0.017-0.298-0.018-0.368-0.005-0.07 0.021-0.2 0.097-0.39 0.229v0l-0.82-0.836 0.383-0.26c0.19-0.132 0.32-0.208 0.39-0.228 0.07-0.014 0.192-0.012 0.368 0.004v0l3.506 0.336c0.236 0.023 0.464 0.143 0.682 0.362v0l0.337 0.329c0.217 0.225 0.311 0.487 0.282 0.784v0l-0.427 4.459c-0.014 0.149-0.017 0.244-0.007 0.286 0.009 0.049 0.058 0.111 0.146 0.188 0.081 0.083 0.126 0.145 0.135 0.187 0.009 0.049 0.006 0.147-0.007 0.296v0l-0.07 0.729-0.517-0.049c-0.182-0.017-0.303-0.043-0.361-0.076-0.066-0.027-0.154-0.097-0.267-0.209v0c-0.143-0.143-0.209-0.276-0.197-0.398zM126.776 273.921v0l-0.111 1.165c-0.014 0.149-0.013 0.244 0.003 0.287 0.009 0.049 0.054 0.111 0.136 0.187 0.081 0.083 0.147 0.133 0.2 0.152 0.046 0.018 0.16 0.036 0.342 0.053v0l1.815 0.174c0.176 0.017 0.298 0.018 0.367 0.005 0.07-0.014 0.197-0.066 0.384-0.158 0.193-0.091 0.305-0.162 0.337-0.213 0.032-0.045 0.054-0.141 0.069-0.29v0l0.097-1.014c0.014-0.149 0.017-0.247 0.008-0.295-0.01-0.042-0.055-0.104-0.136-0.187-0.088-0.077-0.155-0.124-0.201-0.142-0.046-0.018-0.16-0.036-0.342-0.054v0l-2.169-0.207c-0.182-0.017-0.298-0.022-0.347-0.013-0.055 0.008-0.13 0.042-0.224 0.101-0.095 0.066-0.151 0.118-0.169 0.158-0.025 0.045-0.044 0.142-0.059 0.291z" fill="#009b7d" data-fill-palette-color="secondary"></path><path d="M137.485 276.031v0l2.111-6.064 1.241 0.028-2.771 7.424-1.436-0.032-2.44-7.54 1.242 0.028 1.84 6.151c0.051 0.15 0.075 0.27 0.073 0.358v0l0.051 0.001c0.002-0.088 0.032-0.206 0.089-0.354z" fill="#009b7d" data-fill-palette-color="secondary"></path><path d="M144.053 269.888v0l3.591-0.141c0.237-0.009 0.479 0.08 0.724 0.267v0l0.378 0.281c0.245 0.194 0.374 0.44 0.386 0.739v0l0.188 4.791c0.012 0.298-0.097 0.551-0.327 0.757v0l-0.355 0.32c-0.23 0.206-0.463 0.314-0.7 0.323v0l-3.592 0.141c-0.237 0.009-0.482-0.08-0.734-0.267v0l-0.368-0.291c-0.245-0.187-0.374-0.43-0.385-0.729v0l-0.188-4.792c-0.012-0.298 0.097-0.554 0.327-0.767v0l0.344-0.309c0.236-0.206 0.473-0.314 0.711-0.323zM148.056 275.559v0l-0.163-4.161c-0.006-0.149-0.02-0.247-0.043-0.294-0.015-0.04-0.068-0.096-0.159-0.167-0.091-0.064-0.164-0.102-0.218-0.114-0.048-0.012-0.164-0.014-0.347-0.006v0l-2.483 0.097c-0.176 0.007-0.291 0.018-0.345 0.034-0.047 0.015-0.113 0.059-0.198 0.13-0.085 0.078-0.137 0.138-0.156 0.179-0.012 0.048-0.015 0.147-0.009 0.296v0l0.163 4.161c0.006 0.149 0.016 0.244 0.032 0.284 0.022 0.047 0.079 0.102 0.169 0.167 0.091 0.071 0.161 0.113 0.209 0.124 0.055 0.011 0.17 0.014 0.347 0.007v0l2.482-0.097c0.183-0.007 0.298-0.018 0.345-0.034 0.054-0.016 0.123-0.063 0.209-0.141 0.086-0.071 0.134-0.131 0.145-0.179 0.019-0.041 0.025-0.137 0.02-0.286z" fill="#009b7d" data-fill-palette-color="secondary"></path><path d="M152.871 269.334l0.683 7.453-1.257 0.115-0.683-7.452zM152.789 266.99v0l0.012 0.122c0.017 0.189 0.021 0.308 0.012 0.357-0.015 0.056-0.057 0.121-0.125 0.195v0c-0.074 0.089-0.256 0.146-0.547 0.173v0l-0.071 0.007c-0.216 0.02-0.352 0.025-0.407 0.016-0.048-0.002-0.108-0.031-0.182-0.085v0c-0.081-0.061-0.13-0.118-0.149-0.171-0.018-0.046-0.035-0.164-0.052-0.353v0l-0.012-0.121c-0.017-0.189-0.021-0.308-0.012-0.357 0.009-0.049 0.051-0.114 0.125-0.195v0c0.055-0.066 0.106-0.105 0.153-0.117 0.053-0.012 0.188-0.027 0.405-0.047v0l0.061-0.006c0.297-0.027 0.493-0.008 0.588 0.059v0c0.074 0.068 0.124 0.125 0.149 0.17 0.018 0.046 0.035 0.164 0.052 0.353z" fill="#009b7d" data-fill-palette-color="secondary"></path><path d="M159.619 269.469v0l-2.116 0.306c-0.181 0.026-0.295 0.049-0.34 0.07-0.045 0.02-0.11 0.071-0.194 0.152-0.077 0.087-0.119 0.151-0.126 0.193-0.007 0.049 0.001 0.147 0.022 0.295v0l0.596 4.121c0.021 0.148 0.042 0.241 0.061 0.28 0.02 0.045 0.079 0.095 0.176 0.149 0.105 0.06 0.182 0.094 0.231 0.1 0.049 0.007 0.164-0.003 0.345-0.029v0l2.106-0.305c0.175-0.025 0.294-0.053 0.359-0.082 0.058-0.029 0.169-0.11 0.335-0.244 0.159-0.133 0.252-0.228 0.277-0.287 0.02-0.051 0.019-0.15-0.002-0.298v0l-0.533-3.689c-0.029-0.202-0.175-0.383-0.439-0.543-0.27-0.16-0.523-0.223-0.758-0.189zM160.702 275.815v0l-2.832 0.409c-0.235 0.034-0.484-0.029-0.748-0.19v0l-0.396-0.251c-0.27-0.16-0.426-0.388-0.469-0.684v0l-0.687-4.746c-0.043-0.296 0.042-0.562 0.255-0.798v0l0.311-0.343c0.207-0.229 0.428-0.36 0.663-0.394v0l2.61-0.378c0.242-0.035 0.494 0.028 0.757 0.189v0c0.269 0.201 0.408 0.332 0.417 0.392v0l0.061-0.009-0.621-4.292 1.249-0.181 1.348 9.321c0.021 0.148 0.042 0.241 0.061 0.279 0.02 0.045 0.079 0.095 0.176 0.15 0.098 0.061 0.16 0.111 0.186 0.148 0.02 0.045 0.041 0.142 0.063 0.289v0l0.105 0.726-0.524 0.075c-0.175 0.025-0.298 0.029-0.369 0.013-0.063-0.011-0.163-0.059-0.298-0.142v0c-0.173-0.105-0.268-0.218-0.286-0.34v0l-0.06 0.009c0.017 0.121-0.075 0.261-0.279 0.421v0c-0.159 0.133-0.271 0.214-0.335 0.244-0.058 0.029-0.177 0.056-0.358 0.083z" fill="#009b7d" data-fill-palette-color="secondary"></path><path d="M173.564 266.706v0l0.189 6.284-1.57 0.433-4.04-6.65 1.169-0.321 3.21 5.557c0.085 0.131 0.14 0.24 0.163 0.325v0l0.059-0.016c-0.023-0.085-0.029-0.207-0.016-0.365v0l-0.167-6.397 1.472-0.405 3.142 5.576c0.098 0.177 0.153 0.285 0.163 0.325v0l0.059-0.016c-0.023-0.085-0.032-0.206-0.026-0.363v0l-0.089-6.418 1.168-0.321-0.063 7.78-1.571 0.432-3.056-5.494c-0.098-0.177-0.153-0.285-0.163-0.325v0l-0.059 0.016c0.011 0.039 0.019 0.16 0.026 0.363z" fill="#009b7d" data-fill-palette-color="secondary"></path><path d="M187.351 268.05v0l-0.058 0.021c0.041 0.115-0.018 0.27-0.178 0.465v0c-0.136 0.164-0.229 0.267-0.279 0.307-0.057 0.042-0.168 0.093-0.335 0.153v0l-2.413 0.871c-0.223 0.081-0.48 0.069-0.771-0.036v0l-0.448-0.163c-0.29-0.104-0.486-0.297-0.588-0.578v0l-0.612-1.695c-0.101-0.281-0.074-0.554 0.083-0.82v0l0.241-0.412c0.157-0.266 0.347-0.439 0.57-0.519v0l2.519-0.91c0.179-0.065 0.296-0.1 0.352-0.105 0.049-0.003 0.124 0.013 0.223 0.049v0c0.143 0.057 0.232 0.133 0.267 0.229v0l0.057-0.021-0.605-1.676c-0.051-0.14-0.091-0.231-0.119-0.271-0.027-0.034-0.094-0.071-0.203-0.111-0.112-0.032-0.193-0.046-0.242-0.042-0.049 0.003-0.16 0.036-0.333 0.098v0l-2.279 0.823c-0.166 0.06-0.277 0.111-0.335 0.153-0.055 0.049-0.14 0.173-0.254 0.374v0l-1.099-0.404 0.235-0.399c0.115-0.2 0.2-0.325 0.255-0.374 0.057-0.042 0.168-0.093 0.334-0.153v0l3.314-1.196c0.223-0.081 0.48-0.069 0.77 0.036v0l0.445 0.153c0.293 0.111 0.49 0.307 0.591 0.588v0l1.522 4.213c0.051 0.14 0.089 0.228 0.116 0.262 0.029 0.04 0.1 0.076 0.212 0.107 0.108 0.04 0.176 0.077 0.202 0.111 0.029 0.04 0.069 0.13 0.119 0.271v0l0.249 0.689-0.488 0.177c-0.172 0.062-0.292 0.091-0.359 0.086-0.071 0.004-0.181-0.021-0.33-0.076v0c-0.191-0.068-0.307-0.16-0.348-0.275zM182.954 267.267v0l0.398 1.101c0.051 0.14 0.093 0.226 0.126 0.258 0.029 0.04 0.096 0.077 0.202 0.111 0.108 0.04 0.19 0.058 0.246 0.052 0.049-0.003 0.16-0.036 0.333-0.099v0l1.714-0.618c0.166-0.06 0.277-0.111 0.334-0.154 0.057-0.042 0.15-0.144 0.279-0.306 0.136-0.164 0.207-0.277 0.214-0.337 0.009-0.054-0.011-0.151-0.062-0.292v0l-0.346-0.957c-0.051-0.14-0.091-0.231-0.119-0.271-0.027-0.034-0.094-0.071-0.202-0.111-0.112-0.032-0.193-0.046-0.243-0.042-0.049 0.003-0.16 0.036-0.332 0.098v0l-2.05 0.74c-0.172 0.062-0.279 0.108-0.319 0.137-0.046 0.031-0.1 0.094-0.159 0.187-0.058 0.1-0.086 0.172-0.085 0.215-0.003 0.052 0.021 0.148 0.071 0.288z" fill="#009b7d" data-fill-palette-color="secondary"></path><path d="M191.77 262.132l2.391-1.063c0.217-0.096 0.479-0.101 0.785-0.014v0l0.445 0.125c0.3 0.09 0.51 0.271 0.632 0.544v0l0.67 1.507c0.121 0.273 0.113 0.548-0.024 0.824v0l-0.202 0.424c-0.143 0.279-0.324 0.467-0.54 0.563v0l-3.043 1.352c-0.217 0.096-0.474 0.103-0.771 0.02v0l-0.45-0.135c-0.303-0.081-0.516-0.257-0.636-0.53v0l-0.244-0.549 1.153-0.513 0.116 0.261c0.061 0.136 0.105 0.221 0.134 0.252 0.032 0.038 0.102 0.07 0.21 0.096 0.117 0.03 0.2 0.041 0.249 0.034 0.049-0.007 0.157-0.048 0.325-0.122v0l2.028-0.901c0.161-0.072 0.261-0.123 0.299-0.155 0.044-0.034 0.091-0.104 0.142-0.208 0.053-0.098 0.076-0.171 0.069-0.22 0.002-0.045-0.027-0.136-0.088-0.273v0l-0.492-1.107c-0.045-0.069-0.139-0.128-0.279-0.177v0c-0.108-0.026-0.19-0.034-0.245-0.025-0.052 0.001-0.158 0.037-0.319 0.109v0l-2.401 1.066c-0.217 0.096-0.474 0.103-0.771 0.02v0l-0.455-0.121c-0.3-0.09-0.51-0.271-0.632-0.544v0l-0.607-1.367c-0.121-0.273-0.115-0.551 0.019-0.834v0l0.215-0.418c0.137-0.276 0.314-0.463 0.532-0.56v0l2.903-1.29c0.217-0.096 0.477-0.104 0.78-0.023v0l0.446 0.125c0.3 0.09 0.51 0.271 0.631 0.543v0l0.244 0.549-1.144 0.509-0.116-0.261c-0.061-0.136-0.11-0.222-0.148-0.257-0.029-0.032-0.099-0.064-0.21-0.096-0.108-0.026-0.19-0.034-0.245-0.025-0.049 0.007-0.154 0.046-0.315 0.118v0l-1.889 0.839c-0.167 0.074-0.27 0.128-0.308 0.159-0.044 0.034-0.093 0.101-0.146 0.199-0.05 0.104-0.073 0.177-0.069 0.22 0.001 0.052 0.031 0.146 0.092 0.282v0l0.352 0.791c0.061 0.136 0.11 0.222 0.148 0.258 0.029 0.032 0.099 0.064 0.209 0.096 0.108 0.026 0.19 0.034 0.245 0.025 0.049-0.007 0.157-0.048 0.325-0.122z" fill="#009b7d" data-fill-palette-color="secondary"></path><path d="M195.804 254.43l1.111-0.58 0.97 1.859 1.706-0.89c0.158 0.025 0.259 0.056 0.302 0.095 0.052 0.042 0.13 0.162 0.234 0.36v0l0.184 0.352-1.94 1.013 2.21 4.233c0.069 0.132 0.122 0.212 0.159 0.239 0.034 0.036 0.106 0.063 0.215 0.083 0.113 0.025 0.196 0.031 0.251 0.018 0.048-0.01 0.151-0.056 0.307-0.138v0l1.21-0.631c0.161 0.031 0.267 0.064 0.316 0.099 0.049 0.036 0.127 0.156 0.234 0.361v0l0.179 0.342-1.941 1.014c-0.211 0.11-0.47 0.134-0.777 0.072v0l-0.458-0.105c-0.302-0.065-0.522-0.229-0.66-0.494v0l-2.356-4.513-0.64 0.334c-0.161-0.031-0.267-0.064-0.316-0.099-0.043-0.039-0.118-0.16-0.225-0.365v0l-0.179-0.343 0.875-0.457z" fill="#009b7d" data-fill-palette-color="secondary"></path><path d="M203.131 252.822l3.718 6.495-1.096 0.627-3.718-6.495zM202.082 250.724v0l0.061 0.106c0.094 0.165 0.148 0.271 0.159 0.319 0.009 0.057-0.002 0.134-0.033 0.23v0c-0.03 0.111-0.172 0.239-0.425 0.385v0l-0.062 0.035c-0.189 0.108-0.31 0.169-0.363 0.185-0.045 0.018-0.112 0.017-0.201-0.003v0c-0.099-0.022-0.167-0.053-0.206-0.093-0.035-0.034-0.1-0.134-0.195-0.299v0l-0.061-0.106c-0.094-0.165-0.148-0.271-0.159-0.32-0.012-0.048-0.001-0.125 0.033-0.229v0c0.023-0.083 0.053-0.14 0.091-0.17 0.044-0.033 0.16-0.103 0.348-0.211v0l0.053-0.03c0.259-0.148 0.446-0.212 0.559-0.191v0c0.096 0.031 0.165 0.062 0.206 0.093 0.035 0.034 0.1 0.134 0.195 0.299z" fill="#009b7d" data-fill-palette-color="secondary"></path><path d="M205.681 252.113l-0.396-0.617 0.445-0.286c0.148-0.095 0.257-0.153 0.325-0.173 0.066-0.01 0.178-0.005 0.336 0.014v0c0.201 0.024 0.333 0.085 0.395 0.182v0l0.051-0.033c-0.062-0.097-0.034-0.26 0.085-0.49v0c0.09-0.187 0.158-0.307 0.204-0.361 0.04-0.05 0.138-0.125 0.291-0.224v0l2.227-1.431c0.2-0.128 0.456-0.176 0.768-0.142v0l0.46 0.055c0.31 0.043 0.546 0.19 0.707 0.442v0l3.319 5.165-1.053 0.677-3.149-4.9c-0.081-0.126-0.14-0.205-0.177-0.237-0.039-0.023-0.116-0.042-0.231-0.058-0.111-0.009-0.19-0.007-0.237 0.008-0.053 0.018-0.154 0.075-0.302 0.17v0l-1.619 1.04c-0.148 0.095-0.246 0.17-0.292 0.224-0.044 0.044-0.112 0.165-0.204 0.361-0.09 0.187-0.136 0.309-0.139 0.367 0.007 0.06 0.05 0.153 0.131 0.279v0l3.067 4.771-1.054 0.677-3.149-4.899c-0.081-0.126-0.143-0.203-0.185-0.232-0.033-0.027-0.107-0.048-0.222-0.063-0.111-0.009-0.188-0.029-0.231-0.057-0.033-0.027-0.091-0.103-0.171-0.229z" fill="#009b7d" data-fill-palette-color="secondary"></path><path d="M218.241 250.443v0l1.709-1.284c0.19-0.143 0.323-0.366 0.401-0.671 0.068-0.306 0.042-0.537-0.076-0.694v0l-2.239-2.979c-0.09-0.119-0.162-0.193-0.216-0.22-0.056-0.018-0.187-0.017-0.393 0.003-0.216 0.018-0.352 0.04-0.409 0.065-0.067 0.025-0.17 0.09-0.312 0.196v0l-1.701 1.279c-0.147 0.11-0.235 0.185-0.264 0.224-0.03 0.039-0.062 0.115-0.098 0.226-0.026 0.113-0.032 0.189-0.018 0.23 0.018 0.046 0.071 0.129 0.161 0.248v0l2.502 3.329c0.09 0.119 0.152 0.191 0.188 0.216 0.039 0.03 0.115 0.045 0.226 0.047 0.121 0.003 0.204-0.005 0.25-0.023 0.046-0.018 0.142-0.082 0.289-0.192zM219.723 254.195v0l2.841-2.135c0.141-0.106 0.229-0.181 0.264-0.224 0.03-0.039 0.06-0.113 0.09-0.22 0.031-0.117 0.04-0.196 0.026-0.236-0.018-0.046-0.071-0.129-0.161-0.249v0l-1.774-2.36-0.049 0.037c0.041 0.088 0.031 0.274-0.028 0.556v0c-0.072 0.3-0.205 0.524-0.4 0.67v0l-2.109 1.584c-0.19 0.143-0.439 0.207-0.747 0.192v0l-0.468-0.03c-0.314-0.011-0.56-0.135-0.74-0.374v0l-2.881-3.833c-0.179-0.239-0.233-0.513-0.159-0.823v0l0.107-0.45c0.072-0.3 0.202-0.522 0.392-0.664v0l2.288-1.719c0.147-0.11 0.25-0.175 0.311-0.196 0.067-0.025 0.203-0.046 0.409-0.066v0c0.257-0.031 0.419-0.001 0.489 0.092v0l0.049-0.037c-0.069-0.092-0.08-0.237-0.033-0.434v0c0.036-0.155 0.071-0.261 0.103-0.32 0.042-0.057 0.134-0.139 0.275-0.244v0l0.423-0.318 0.441 0.586c0.09 0.119 0.141 0.199 0.155 0.24 0.012 0.05 0.004 0.129-0.027 0.236-0.026 0.113-0.032 0.189-0.018 0.23 0.018 0.046 0.071 0.129 0.162 0.248v0l5.028 6.691c0.179 0.239 0.233 0.513 0.159 0.823v0l-0.107 0.45c-0.072 0.3-0.205 0.524-0.401 0.67v0l-3.491 2.624-0.233-0.309c-0.139-0.184-0.213-0.307-0.224-0.366-0.016-0.056-0.004-0.163 0.038-0.322z" fill="#009b7d" data-fill-palette-color="secondary"></path><path d="M234.733 242.898v0l-3.152 2.95-0.264-0.282c-0.158-0.168-0.245-0.282-0.263-0.34-0.017-0.058-0.014-0.169 0.011-0.331v0l2.676-2.505c0.134-0.125 0.213-0.209 0.239-0.252 0.025-0.042 0.047-0.119 0.065-0.228 0.018-0.119 0.019-0.199 0.001-0.238-0.023-0.044-0.085-0.12-0.187-0.229v0l-2.018-2.156-0.045 0.042c0.05 0.083 0.061 0.269 0.032 0.556v0c-0.039 0.306-0.148 0.543-0.326 0.709v0l-1.903 1.782c-0.173 0.162-0.414 0.253-0.722 0.271v0l-0.469 0.021c-0.313 0.023-0.571-0.074-0.775-0.292v0l-4.196-4.482 0.921-0.863 3.981 4.252c0.102 0.109 0.172 0.174 0.21 0.194 0.042 0.025 0.119 0.033 0.229 0.022 0.12-0.01 0.203-0.027 0.247-0.05 0.044-0.023 0.133-0.096 0.266-0.221v0l1.398-1.309c0.134-0.125 0.216-0.216 0.246-0.273 0.036-0.061 0.081-0.192 0.136-0.391 0.06-0.205 0.081-0.336 0.063-0.394-0.013-0.053-0.07-0.134-0.172-0.244v0l-3.876-4.14 0.922-0.863 6.854 7.321c0.204 0.218 0.289 0.483 0.255 0.794v0l-0.066 0.466c-0.039 0.306-0.145 0.54-0.318 0.703z" fill="#009b7d" data-fill-palette-color="secondary"></path><path d="M230.647 230.802v0l2.444-2.636c0.162-0.174 0.395-0.281 0.701-0.322v0l0.466-0.068c0.311-0.036 0.576 0.048 0.795 0.252v0l3.516 3.261c0.219 0.203 0.32 0.459 0.303 0.766v0l-0.026 0.477c-0.017 0.308-0.107 0.549-0.268 0.723v0l-2.444 2.635c-0.162 0.174-0.398 0.284-0.708 0.33v0l-0.466 0.053c-0.306 0.04-0.568-0.041-0.788-0.244v0l-3.516-3.261c-0.219-0.203-0.322-0.461-0.31-0.774v0l0.026-0.462c0.022-0.313 0.114-0.557 0.275-0.73zM237.486 231.992v0l-3.053-2.832c-0.11-0.102-0.189-0.161-0.238-0.178-0.039-0.018-0.116-0.02-0.231-0.006-0.11 0.019-0.188 0.043-0.234 0.074-0.042 0.026-0.126 0.106-0.251 0.24v0l-1.689 1.822c-0.12 0.129-0.194 0.219-0.221 0.267-0.022 0.044-0.039 0.122-0.049 0.233-0.005 0.115 0 0.195 0.017 0.237 0.026 0.042 0.093 0.114 0.202 0.215v0l3.054 2.832c0.11 0.102 0.184 0.161 0.223 0.179 0.049 0.017 0.128 0.017 0.237-0.002 0.115-0.014 0.193-0.034 0.236-0.059 0.047-0.031 0.13-0.111 0.25-0.24v0l1.689-1.821c0.125-0.134 0.198-0.224 0.221-0.268 0.027-0.049 0.043-0.131 0.048-0.247 0.01-0.111 0.003-0.187-0.023-0.23-0.016-0.043-0.079-0.115-0.188-0.216z" fill="#009b7d" data-fill-palette-color="secondary"></path><path d="M243.802 226.978v0l-1.473 1.833c-0.149 0.185-0.374 0.309-0.676 0.371v0l-0.462 0.086c-0.306 0.067-0.576 0.007-0.809-0.179v0l-4.786-3.845 0.791-0.985 4.54 3.648c0.116 0.094 0.195 0.148 0.235 0.162 0.046 0.019 0.122 0.016 0.231-0.01 0.118-0.027 0.197-0.055 0.237-0.084 0.04-0.029 0.118-0.114 0.232-0.257v0l1.014-1.262c0.111-0.138 0.179-0.239 0.206-0.305 0.022-0.06 0.049-0.196 0.079-0.407 0.026-0.206 0.028-0.339 0.007-0.399-0.02-0.051-0.088-0.123-0.205-0.217v0l-4.421-3.552 0.79-0.984 4.541 3.648c0.116 0.094 0.195 0.148 0.235 0.162 0.046 0.019 0.122 0.016 0.23-0.01 0.113-0.022 0.192-0.028 0.237-0.019 0.046 0.019 0.127 0.076 0.243 0.169v0l0.572 0.459-0.332 0.413c-0.111 0.138-0.198 0.224-0.261 0.26-0.054 0.035-0.159 0.068-0.315 0.1v0c-0.198 0.041-0.345 0.023-0.44-0.054v0l-0.039 0.048c0.095 0.077 0.123 0.242 0.084 0.498v0c-0.026 0.206-0.052 0.341-0.079 0.407-0.022 0.06-0.091 0.162-0.206 0.305z" fill="#009b7d" data-fill-palette-color="secondary"></path><path d="M241.558 218.761l-0.601-0.421 0.305-0.433c0.101-0.144 0.18-0.239 0.235-0.283 0.057-0.034 0.163-0.072 0.316-0.114v0c0.195-0.054 0.34-0.047 0.435 0.019v0l0.035-0.05c-0.094-0.066-0.13-0.228-0.107-0.485v0c0.012-0.207 0.03-0.344 0.052-0.412 0.018-0.062 0.08-0.168 0.186-0.317v0l0.789-1.125c0.136-0.194 0.355-0.335 0.657-0.422v0l0.447-0.123 0.102 1.167-0.231 0.062c-0.106 0.033-0.179 0.065-0.217 0.096-0.042 0.037-0.114 0.127-0.215 0.272v0l-0.374 0.534c-0.101 0.144-0.163 0.25-0.186 0.317-0.024 0.058-0.041 0.195-0.052 0.411-0.012 0.207-0.009 0.338 0.01 0.393 0.029 0.053 0.104 0.123 0.227 0.209v0l4.642 3.258-0.719 1.025-4.767-3.346c-0.122-0.086-0.209-0.134-0.26-0.144-0.041-0.012-0.118-0.004-0.229 0.025-0.106 0.033-0.185 0.045-0.235 0.034-0.041-0.012-0.123-0.061-0.245-0.147z" fill="#009b7d" data-fill-palette-color="secondary"></path><path d="M245.612 207.345l0.624-1.085 1.818 1.045 0.96-1.668c0.147-0.064 0.249-0.092 0.305-0.083 0.067 0.007 0.197 0.066 0.391 0.178v0l0.345 0.198-1.092 1.898 4.14 2.38c0.129 0.074 0.217 0.113 0.263 0.116 0.048 0.012 0.123-0.003 0.226-0.046 0.109-0.039 0.182-0.079 0.221-0.12 0.035-0.034 0.097-0.128 0.185-0.281v0l0.68-1.183c0.153-0.061 0.259-0.09 0.32-0.086 0.061 0.004 0.191 0.063 0.391 0.178v0l0.336 0.193-1.092 1.898c-0.118 0.206-0.324 0.366-0.616 0.479v0l-0.442 0.157c-0.289 0.108-0.563 0.087-0.822-0.062v0l-4.414-2.537-0.36 0.626c-0.153 0.061-0.259 0.09-0.32 0.087-0.057-0.009-0.186-0.072-0.386-0.187v0l-0.335-0.193 0.492-0.856z" fill="#009b7d" data-fill-palette-color="secondary"></path><path d="M250.923 202.05l6.628 3.475-0.586 1.119-6.628-3.476zM248.911 200.845v0l0.108 0.057c0.168 0.088 0.27 0.149 0.306 0.184 0.039 0.043 0.071 0.114 0.096 0.211v0c0.034 0.11-0.016 0.294-0.152 0.553v0l-0.033 0.063c-0.101 0.192-0.17 0.309-0.207 0.351-0.028 0.039-0.085 0.074-0.17 0.106v0c-0.095 0.035-0.169 0.045-0.224 0.032-0.048-0.01-0.157-0.059-0.325-0.147v0l-0.108-0.057c-0.168-0.088-0.27-0.149-0.307-0.184-0.036-0.034-0.068-0.105-0.096-0.211v0c-0.026-0.082-0.031-0.146-0.014-0.191 0.019-0.051 0.079-0.173 0.18-0.366v0l0.028-0.054c0.139-0.265 0.262-0.418 0.369-0.462v0c0.098-0.025 0.172-0.036 0.224-0.032 0.048 0.01 0.157 0.059 0.325 0.147z" fill="#009b7d" data-fill-palette-color="secondary"></path><path d="M254.985 194.782v0l0.024-0.056c-0.075-0.048-0.136-0.179-0.183-0.392v0l-0.059-0.271c-0.026-0.211-0.035-0.349-0.029-0.413 0.009-0.07 0.049-0.186 0.12-0.348v0l0.96-2.18c0.096-0.217 0.283-0.398 0.561-0.543v0l0.414-0.207c0.282-0.135 0.56-0.143 0.833-0.023v0l5.619 2.474-0.504 1.146-5.331-2.347c-0.137-0.06-0.229-0.094-0.278-0.1-0.045 0.002-0.12 0.029-0.224 0.079-0.098 0.053-0.162 0.099-0.194 0.138-0.034 0.044-0.087 0.147-0.158 0.308v0l-0.665 1.51c-0.074 0.168-0.114 0.284-0.119 0.348-0.015 0.068-0.005 0.205 0.029 0.413v0c0.031 0.266 0.101 0.427 0.21 0.482v0l5.331 2.347-0.509 1.155-5.33-2.346c-0.137-0.06-0.229-0.094-0.279-0.101-0.043-0.004-0.117 0.022-0.224 0.08-0.098 0.053-0.162 0.099-0.194 0.137-0.034 0.044-0.087 0.147-0.158 0.308v0l-0.611 1.389c-0.071 0.162-0.111 0.277-0.12 0.348-0.012 0.061-0.002 0.199 0.03 0.413 0.028 0.205 0.057 0.333 0.087 0.383 0.039 0.047 0.126 0.1 0.263 0.161v0l5.191 2.285-0.505 1.146-5.33-2.347c-0.137-0.06-0.231-0.091-0.283-0.091-0.043-0.004-0.116 0.019-0.22 0.07-0.098 0.053-0.172 0.08-0.224 0.08-0.043-0.004-0.132-0.036-0.269-0.096v0l-0.671-0.296 0.213-0.484c0.071-0.162 0.13-0.269 0.176-0.324 0.049-0.045 0.145-0.103 0.288-0.173v0c0.181-0.091 0.324-0.113 0.43-0.067v0l0.024-0.056c-0.106-0.046-0.172-0.198-0.2-0.455v0c-0.028-0.205-0.038-0.343-0.029-0.413 0.006-0.064 0.046-0.18 0.119-0.348v0l0.903-2.05c0.098-0.224 0.286-0.405 0.562-0.543v0c0.259-0.116 0.43-0.159 0.513-0.13z" fill="#009b7d" data-fill-palette-color="secondary"></path><path d="M264.763 184.226v0l0.99-0.611 0.176 0.436c0.085 0.215 0.126 0.358 0.124 0.428 0.006 0.067-0.02 0.187-0.079 0.361v0l-1.281 3.791c-0.076 0.225-0.245 0.419-0.507 0.581v0l-0.404 0.239c-0.265 0.169-0.539 0.205-0.821 0.11v0l-4.544-1.535c-0.283-0.096-0.482-0.292-0.596-0.588v0l-0.166-0.432c-0.11-0.288-0.128-0.545-0.052-0.77v0l1.118-3.309c0.065-0.193 0.236-0.39 0.511-0.59v0l0.397-0.253c0.252-0.173 0.529-0.208 0.831-0.106v0l2.913 0.984-1.638 4.852 1.331 0.45c0.141 0.048 0.234 0.072 0.276 0.072 0.049 0.002 0.12-0.027 0.213-0.09 0.101-0.066 0.166-0.12 0.194-0.16 0.028-0.041 0.071-0.148 0.13-0.321v0l0.929-2.75c0.059-0.174 0.085-0.294 0.078-0.36 0.002-0.071-0.039-0.214-0.123-0.429zM260.808 187.501l1.235-3.656-1.688-0.57c-0.141-0.048-0.237-0.073-0.286-0.075-0.043 0-0.114 0.03-0.213 0.089-0.095 0.068-0.156 0.123-0.184 0.164-0.028 0.041-0.071 0.148-0.13 0.321v0l-0.766 2.267c-0.059 0.174-0.089 0.285-0.091 0.335-0.002 0.049 0.013 0.13 0.047 0.241 0.043 0.107 0.081 0.174 0.115 0.2 0.041 0.028 0.132 0.066 0.273 0.114v0z" fill="#009b7d" data-fill-palette-color="secondary"></path><path d="M266.548 179.746v0l0.333 0.094c0.144 0.041 0.233 0.073 0.269 0.097 0.037 0.018 0.076 0.067 0.116 0.149v0c0.045 0.09 0.036 0.247-0.027 0.469v0l-0.019 0.068c-0.065 0.229-0.141 0.373-0.228 0.433v0c-0.101 0.056-0.252 0.056-0.455-0.001v0l-0.333-0.095c-0.144-0.041-0.233-0.073-0.269-0.097-0.037-0.018-0.073-0.066-0.106-0.146v0c-0.052-0.092-0.045-0.253 0.019-0.481v0l0.017-0.059c0.065-0.229 0.144-0.372 0.238-0.43v0c0.094-0.058 0.242-0.058 0.445-0.001z" fill="#009b7d" data-fill-palette-color="secondary"></path></g></svg></g></svg></g></svg></g></svg></g><defs></defs></svg><rect width="279.72" height="279.72" fill="none" stroke="none" visibility="hidden"></rect></g></svg></g></svg>